<?xml version="1.0" standalone="no"?>
<!DOCTYPE svg PUBLIC "-//W3C//DTD SVG 20010904//EN"
 "http://www.w3.org/TR/2001/REC-SVG-20010904/DTD/svg10.dtd">
<svg version="1.0" xmlns="http://www.w3.org/2000/svg"
 width="767.000000pt" height="768.000000pt" viewBox="0 0 767.000000 768.000000"
 preserveAspectRatio="xMidYMid meet">

<g transform="translate(0.000000,768.000000) scale(0.100000,-0.100000)"
fill="#000000" stroke="none">
<path d="M3612 5299 c-90 -13 -219 -59 -307 -110 -145 -83 -296 -250 -356
-393 -19 -47 -27 -55 -101 -96 -190 -106 -300 -260 -268 -373 42 -150 291
-223 640 -187 324 34 680 125 1000 255 157 64 380 172 380 183 0 35 -45 173
-78 239 -137 271 -384 447 -677 482 -102 12 -144 12 -233 0z m253 -411 c162
-41 314 -195 356 -361 15 -60 9 -72 -38 -84 -21 -6 -101 -29 -178 -51 -193
-57 -359 -88 -568 -109 -205 -19 -192 -24 -203 74 -32 299 232 571 531 546 33
-2 78 -9 100 -15z m-959 -200 c-17 -62 -37 -231 -34 -290 2 -38 1 -68 -3 -68
-17 0 -90 63 -104 89 -19 37 -19 101 -1 145 14 34 120 146 138 146 6 0 8 -10
4 -22z"/>
<path d="M4721 4871 c-12 -8 -1 -25 52 -84 l67 -75 -48 -31 -49 -31 -47 16
c-26 9 -49 14 -52 11 -3 -3 11 -27 30 -55 20 -27 39 -63 42 -81 6 -29 34 -45
34 -18 0 6 5 29 10 49 9 31 19 41 57 58 25 11 49 20 52 20 4 0 15 -33 26 -72
29 -116 32 -121 55 -108 18 10 20 21 20 125 0 103 2 114 19 120 10 3 38 19 61
36 30 22 40 36 38 52 -4 32 -31 32 -96 -1 l-58 -29 -89 53 c-95 57 -102 59
-124 45z"/>
<path d="M4538 4438 c-37 -27 -127 -86 -200 -132 -100 -62 -137 -91 -150 -116
-77 -151 -201 -246 -363 -280 -61 -13 -154 -8 -232 12 -37 9 -56 6 -137 -16
-129 -37 -266 -64 -359 -72 -43 -4 -80 -11 -83 -15 -9 -15 95 -210 181 -339
45 -69 119 -168 163 -220 81 -97 303 -318 358 -357 l30 -22 105 93 c352 312
617 722 714 1105 29 116 48 263 43 347 l-3 61 -67 -49z"/>
<path d="M4602 3698 c-33 -33 12 -128 55 -114 11 3 25 18 31 31 14 30 2 33
-16 5 -6 -11 -18 -17 -26 -14 -12 5 -12 10 -1 37 20 49 -10 88 -43 55z m33
-18 c9 -14 -4 -52 -16 -45 -12 8 -12 55 0 55 6 0 13 -5 16 -10z"/>
<path d="M4520 3620 c6 -11 5 -22 -3 -30 -10 -10 -9 -12 5 -7 12 4 26 -4 44
-28 30 -40 44 -43 62 -14 12 19 11 20 -6 15 -25 -8 -66 35 -58 61 5 16 1 20
-23 20 -25 0 -28 -3 -21 -17z"/>
<path d="M4471 3534 c-25 -32 -25 -37 -6 -74 28 -55 92 -44 77 13 -5 19 -3 20
10 10 8 -7 18 -10 21 -7 5 5 -70 84 -79 84 -1 0 -12 -12 -23 -26z m43 -26 c19
-27 21 -71 4 -66 -21 7 -51 56 -45 72 9 22 23 20 41 -6z"/>
<path d="M4397 3453 c-4 -3 -7 -17 -7 -29 0 -16 -7 -24 -22 -26 -17 -2 -23
-10 -23 -29 0 -20 -4 -25 -17 -21 -26 7 -23 -1 23 -47 40 -40 67 -48 41 -13
-52 72 -42 122 12 59 39 -47 54 -38 21 12 -27 39 -32 71 -12 71 6 0 21 -14 32
-30 11 -16 26 -30 33 -30 18 0 15 7 -20 51 -30 38 -47 47 -61 32z"/>
<path d="M4205 3300 c-7 -11 85 -130 101 -130 6 0 18 8 25 17 12 15 12 16 -3
10 -13 -4 -30 10 -67 54 -27 32 -52 55 -56 49z"/>
<path d="M4192 3208 c-19 -19 -15 -75 8 -98 29 -29 57 -25 75 10 18 35 11 39
-14 8 -22 -27 -46 -16 -30 13 24 46 -7 99 -39 67z m30 -43 c-5 -28 -12 -32
-22 -15 -15 24 -11 42 8 38 11 -2 16 -11 14 -23z"/>
<path d="M4130 3125 c0 -2 11 -21 25 -41 14 -20 25 -43 25 -50 0 -25 -33 -15
-61 19 -39 46 -48 26 -9 -23 36 -45 58 -48 76 -11 14 27 4 63 -23 93 -15 17
-33 24 -33 13z"/>
<path d="M4032 3007 c-29 -31 -28 -62 3 -93 32 -32 59 -28 63 9 2 20 8 27 18
23 24 -9 15 9 -24 47 l-38 37 -22 -23z m43 -38 c9 -17 14 -38 10 -46 -5 -14
-9 -12 -30 7 -24 23 -32 50 -18 63 12 13 23 7 38 -24z"/>
<path d="M3976 2943 c-3 -3 -6 -15 -6 -25 0 -10 -3 -17 -7 -17 -20 3 -17 -4
19 -43 46 -50 61 -43 23 12 -22 32 -25 43 -16 54 12 14 0 32 -13 19z"/>
<path d="M3876 2872 c-3 -6 -2 -14 4 -17 6 -4 8 -15 5 -26 -5 -14 -2 -17 8
-13 9 3 23 -7 37 -25 25 -36 45 -39 60 -11 6 12 7 20 1 20 -5 0 -12 -6 -14
-12 -8 -19 -58 43 -53 65 3 12 0 17 -9 14 -7 -3 -17 -1 -23 5 -6 6 -12 6 -16
0z"/>
</g>
</svg>
